<?xml version="1.0"?>
<svg xmlns="http://www.w3.org/2000/svg" height="512px" viewBox="0 0 60 60" width="512px"><g><g id="004---Bike-Parking"><path id="Shape" d="m23 22h14c1.6568542 0 3-1.3431458 3-3v-16c0-1.65685425-1.3431458-3-3-3h-14c-1.6568542 0-3 1.34314575-3 3v16c0 1.6568542 1.3431458 3 3 3zm-1-19c0-.55228475.4477153-1 1-1h14c.5522847 0 1 .44771525 1 1v16c0 .5522847-.4477153 1-1 1h-14c-.5522847 0-1-.4477153-1-1z" data-original="#000000" class="active-path" data-old_color="#000000" fill="#FFFFFF"/><path id="Shape" d="m27 18c.5522847 0 1-.4477153 1-1v-4h2.5c2.4852814 0 4.5-2.0147186 4.5-4.5 0-2.48528137-2.0147186-4.5-4.5-4.5h-2.5c-1.1045695 0-2 .8954305-2 2v11c0 .5522847.4477153 1 1 1zm1-12h2.5c1.3807119 0 2.5 1.11928813 2.5 2.5s-1.1192881 2.5-2.5 2.5h-2.5z" data-original="#000000" class="active-path" data-old_color="#000000" fill="#FFFFFF"/><path id="Shape" d="m49.5 37.964c-1.4970669.0009842-2.9763306.324669-4.337.949l-5.386-8.052 1.493-3.45c.364745-.7308143.3253151-1.5983378-.1042218-2.2930511-.4295369-.6947132-1.1879989-1.1176637-2.0047782-1.1179489h-4.59c-.5522847 0-1 .4477153-1 1s.4477153 1 1 1h4.59c.1228158-.0005518.2368281.0636751.3.169.0723348.124234.0696374.278373-.007.4l-1.472 3.4h-14.817l1.109-2.553c.3675269-.7320305.3288297-1.6023474-.1022155-2.2988707-.4310451-.6965233-1.1926757-1.1194512-2.0117845-1.1171293h-4.59c-.5522847 0-1 .4477153-1 1s.4477153 1 1 1h4.59c.1263634-.0021145.2442161.0634863.309.172.0704518.1207045.0681409.2705258-.006.389l-1.73 3.977-3.733 8.029c-4.0813626-1.4591584-8.63986063-.2537104-11.46644292 3.0321832s-3.33725948 7.9733468-1.28455708 11.7908168l-.345.574h-.904c-1.65685425 0-3 1.3431458-3 3s1.34314575 3 3 3h20c1.5912687-.061433 2.8572678-1.3554581 2.8838493-2.9476903.0265815-1.5922323-1.1955179-2.9277949-2.7838493-3.0423097l-.351-.584c2.6731384-4.9560279.9257523-11.1391886-3.946-13.963l2.862-6.151 7.935 16.129c.0416986.0853492.0955968.1641753.16.234l.019.015c.077794.0792706.1683974.1448567.268.194.014.007.023.02.038.027s.031 0 .046.01c.1164949.0484845.2408738.0752582.367.079h8.622c.8037475 5.5426368 5.8183622 9.4773165 11.3930898 8.9395022 5.5747277-.5378142 9.7446745-5.3585619 9.4740237-10.9526285-.2706507-5.5940666-4.8865042-9.9897419-10.4871135-9.9868737zm-4.962 3.613 3.9 5.834c.0751398.111303.0801868.2557232.013.372-.0581388.1118236-.1739677.181707-.3.181l-7.126.0000053c.1502497-2.5491621 1.4405675-4.8950942 3.513-6.3870053zm-5.513 6.387h-6.975l6.762-14.949 4.615 6.9c-2.6254189 1.8647381-4.248436 4.8324039-4.402 8.049zm-34.025.5c-.00009688-2.7256482 1.30692062-5.2860157 3.51449902-6.8846888 2.20757838-1.5986732 5.04791138-2.0417134 7.63750098-1.1913112l-2.13 4.576h-3.022c-1.05100798.003573-2.02404034.555097-2.567 1.455l-2.928 4.881c-.32779743-.9098937-.49856237-1.8688825-.505-2.836zm15.763 5.5h-2.327l-2.708-4.515c-.180941-.3011669-.5066582-.4852845-.858-.485h-2.74c-.3513418-.0002845-.677059.1838331-.858.485l-2.708 4.515h-2.327l3.91-6.516c.1802675-.2992591.5036423-.4827449.853-.484h5c.3495588.0014666.6729787.1853572.853.485zm-4.659 0h-5.204l1.8-3h1.6zm7.9 3c0 .5522847-.4477153 1-1 1h-20.004c-.55228475 0-1-.4477153-1-1s.44771525-1 1-1h20c.5522847 0 1 .4477153 1 1zm-2-8.5c-.0051725.9658216-.1742403 1.9237593-.5 2.833l-2.937-4.877c-.5066148-.8286707-1.3830635-1.3608003-2.352-1.428l1.746-3.751c2.4996048 1.5521859 4.0253525 4.2807018 4.039 7.223zm15.093-16.5-6.635 14.658-7.212-14.658zm12.407 25c-4.1119031-.0065044-7.6305879-2.953124-8.359-7h7.01c.8566797-.0007728 1.6448231-.4684454 2.056-1.22.4168062-.7646382.381497-1.6961104-.092-2.427l-3.829-5.717c3.1792451-1.3042114 6.8310294-.5658451 9.2538446 1.8710655s3.1399858 6.0929165 1.8173541 9.2645426c-1.3226318 3.1716261-4.4248453 5.2348723-7.8611987 5.2283919z" data-original="#000000" class="active-path" data-old_color="#000000" fill="#FFFFFF"/></g></g> </svg>
